<?xml version="1.0" encoding="utf-8"?>
<!-- Generator: Adobe Illustrator 16.0.4, SVG Export Plug-In . SVG Version: 6.00 Build 0)  -->
<!DOCTYPE svg PUBLIC "-//W3C//DTD SVG 1.1//EN" "http://www.w3.org/Graphics/SVG/1.1/DTD/svg11.dtd">
<svg version="1.1" id="Layer_1" xmlns="http://www.w3.org/2000/svg" xmlns:xlink="http://www.w3.org/1999/xlink" x="0px" y="0px"
	 width="150px" height="150px" viewBox="0 0 150 150" enable-background="new 0 0 150 150" xml:space="preserve">
<circle fill="#FFFFFF" cx="75" cy="75" r="75"/>
<path fill="#CC7373" d="M31.476,91.297c-7.122-0.34-12.917-6.402-12.917-13.514c0-7.109,5.794-13.173,12.916-13.516l0.19,3.957
	c-4.957,0.239-9.144,4.617-9.144,9.559c0,4.943,4.187,9.32,9.144,9.558L31.476,91.297z"/>
<path fill="#73A6CC" d="M120.957,76.152c7.121,0.341,12.916,6.402,12.916,13.514c0,7.109-5.795,13.174-12.916,13.516l-0.189-3.957
	c4.957-0.238,9.144-4.615,9.144-9.559c0-4.941-4.187-9.32-9.144-9.559L120.957,76.152z"/>
<path fill="#86DFF5" d="M76.871,144h-0.627C65.925,144,57,135.062,57,124.896V114h39v10.896C96,135.605,86.623,144,76.871,144z
	 M61,118v6.896C61,132.843,68.146,141,76.244,141h0.627C84.439,141,92,133.422,92,124.896V118H61z"/>
<path fill="#73A6CC" d="M56.816,51.773c-2.952,0-5.353,2.402-5.353,5.354s2.401,5.354,5.353,5.354s5.354-2.402,5.354-5.354
	S59.769,51.773,56.816,51.773z M56.816,55.734c0.768,0,1.393,0.625,1.393,1.394s-0.625,1.394-1.393,1.394s-1.392-0.625-1.392-1.394
	S56.048,55.734,56.816,55.734z"/>
<path fill="#FF826B" d="M100.393,67.3c-3.436,0-6.231-2.797-6.231-6.233c0-3.438,2.797-6.233,6.231-6.233
	c3.438,0,6.234,2.795,6.234,6.233C106.627,64.503,103.83,67.3,100.393,67.3z M100.393,57.203c-2.129,0-3.86,1.734-3.86,3.863
	s1.731,3.863,3.86,3.863c2.131,0,3.863-1.734,3.863-3.863S102.521,57.203,100.393,57.203z"/>
<rect x="93.776" y="21.732" transform="matrix(-0.707 -0.7072 0.7072 -0.707 139.2548 128.0475)" fill="#86DFF5" width="4.753" height="26.89"/>
<polygon fill="#296B99" points="76.336,101.078 65.976,101.078 74.396,60.662 78.273,61.471 70.849,97.117 76.336,97.117 "/>
<path fill="#FF826B" d="M63.48,37.481c-2.108-1.266-3.89-2.841-5.612-4.364c-2.014-1.782-3.917-3.465-6.218-4.576
	c-4.079-1.971-7.573-3.259-11.387-3.125c-2.893,0.101-4.6,0.688-5.709,1.969l-3.594-3.113c2.635-3.041,6.478-3.515,9.14-3.607
	c5.067-0.168,9.539,1.625,13.618,3.597c2.893,1.396,5.133,3.379,7.3,5.296c1.633,1.444,3.175,2.809,4.909,3.848L63.48,37.481z"/>
</svg>
