<?xml version="1.0" encoding="utf-8"?>
<!-- Generator: Adobe Illustrator 16.0.4, SVG Export Plug-In . SVG Version: 6.00 Build 0)  -->
<!DOCTYPE svg PUBLIC "-//W3C//DTD SVG 1.1//EN" "http://www.w3.org/Graphics/SVG/1.1/DTD/svg11.dtd">
<svg version="1.1" id="Layer_1" xmlns="http://www.w3.org/2000/svg" xmlns:xlink="http://www.w3.org/1999/xlink" x="0px" y="0px"
	 width="150px" height="150px" viewBox="0 0 150 150" enable-background="new 0 0 150 150" xml:space="preserve">
<circle fill="#FFFFFF" cx="75" cy="75" r="75"/>
<path fill="#296B99" d="M130.883,91.949c-0.156,0-0.311-0.004-0.461-0.014c-2.35-0.146-4.062-1.425-4.582-3.418l3.76-0.981
	c0.032,0.126,0.12,0.463,1.064,0.521c1.824,0.116,4.053-1.055,4.36-1.824c0.485-1.216,0.048-3.102-0.416-5.096
	c-0.528-2.276-1.128-4.855-0.448-7.247c0.621-2.179,1.754-3.912,2.752-5.441c1.761-2.697,2.924-4.479,1.518-7.85
	c-1.065-2.552-3.16-3.431-5.898-2.471c-1.9,0.665-1.992,1.222-2.34,3.29c-0.139,0.819-0.295,1.75-0.611,2.808l-3.722-1.114
	c0.247-0.826,0.376-1.594,0.501-2.338c0.385-2.292,0.82-4.889,4.887-6.312c4.683-1.639,8.908,0.184,10.77,4.642
	c2.199,5.269,0.048,8.563-1.85,11.47c-0.931,1.424-1.81,2.77-2.269,4.382c-0.405,1.426,0.052,3.397,0.495,5.303
	c0.58,2.492,1.178,5.068,0.239,7.417C137.59,90.282,133.83,91.949,130.883,91.949z"/>
<g>
	<path fill="#CC7373" d="M95.652,37.077c-8.158,0-14.796,6.636-14.796,14.795c0,8.158,6.638,14.794,14.796,14.794
		c8.156,0,14.794-6.636,14.794-14.794C110.446,43.713,103.809,37.077,95.652,37.077z M95.652,62.925
		c-6.096,0-11.055-4.958-11.055-11.053c0-6.096,4.959-11.055,11.055-11.055c6.094,0,11.053,4.959,11.053,11.055
		C106.705,57.967,101.746,62.925,95.652,62.925z"/>
	<path fill="#CC7373" d="M95.658,48.173c-2.039,0-3.698,1.66-3.698,3.699s1.659,3.699,3.698,3.699c2.04,0,3.699-1.66,3.699-3.699
		S97.698,48.173,95.658,48.173z"/>
</g>
<path fill="#86DFF5" d="M52.235,50.198c3.044,0,5.521,2.477,5.521,5.521c0,3.044-2.477,5.521-5.521,5.521s-5.521-2.477-5.521-5.521
	C46.715,52.675,49.191,50.198,52.235,50.198 M52.235,43.982c-6.482,0-11.737,5.255-11.737,11.737s5.255,11.736,11.737,11.736
	c6.482,0,11.737-5.254,11.737-11.736S58.718,43.982,52.235,43.982L52.235,43.982z"/>
<rect x="50.292" y="14.171" transform="matrix(0.3616 0.9323 -0.9323 0.3616 57.1211 -32.4211)" fill="#FF826B" width="3.886" height="22.66"/>
<rect x="84.102" y="20.487" transform="matrix(0.9323 0.3617 -0.3617 0.9323 14.5716 -32.9951)" fill="#73A6CC" width="22.661" height="3.886"/>
<path fill="#B3B3B3" d="M75.473,139.478c-7.873,0-14.278-5.768-14.278-12.854c0-7.089,6.405-12.854,14.278-12.854
	s14.279,5.766,14.279,12.854C89.752,133.71,83.346,139.478,75.473,139.478z M75.473,118.431c-5.302,0-9.616,3.675-9.616,8.192
	c0,4.516,4.314,8.191,9.616,8.191c5.303,0,9.616-3.676,9.616-8.191C85.089,122.105,80.775,118.431,75.473,118.431z"/>
<path fill="#73A6CC" d="M26.856,90.672c-8.089,0-13.055-3.206-17.199-10.837c-3.575-6.585-3.996-16.119,2.116-21.602
	c4.958-4.449,12.611-4.033,17.06,0.925c3.701,4.126,3.355,10.494-0.77,14.196c-1.677,1.504-3.836,2.259-6.087,2.143
	c-2.249-0.122-4.315-1.112-5.819-2.789l2.893-2.594c0.811,0.903,1.925,1.438,3.138,1.503c1.214,0.069,2.378-0.345,3.281-1.155
	c2.531-2.271,2.743-6.178,0.472-8.711c-3.017-3.361-8.209-3.645-11.573-0.625c-4.612,4.137-4.142,11.61-1.295,16.854
	c3.854,7.101,8.153,9.37,16.427,8.69l0.32,3.871C28.787,90.628,27.8,90.672,26.856,90.672z"/>
<polygon fill="#FF826B" points="82.272,93.482 68.933,93.482 68.933,71.855 72.818,71.855 72.818,89.597 82.272,89.597 "/>
</svg>
