<?xml version="1.0" encoding="utf-8"?>
<!-- Generator: Adobe Illustrator 16.0.4, SVG Export Plug-In . SVG Version: 6.00 Build 0)  -->
<!DOCTYPE svg PUBLIC "-//W3C//DTD SVG 1.1//EN" "http://www.w3.org/Graphics/SVG/1.1/DTD/svg11.dtd">
<svg version="1.1" id="Layer_1" xmlns="http://www.w3.org/2000/svg" xmlns:xlink="http://www.w3.org/1999/xlink" x="0px" y="0px"
	 width="150px" height="150px" viewBox="0 0 150 150" enable-background="new 0 0 150 150" xml:space="preserve">
<circle fill="#FFFFFF" cx="75" cy="75" r="75"/>
<g>
	<path fill="#86DFF5" d="M92.372,42.52c-7.024,0-12.74,5.715-12.74,12.739c0,7.026,5.716,12.741,12.74,12.741
		s12.739-5.715,12.739-12.741C105.111,48.234,99.396,42.52,92.372,42.52z M92.372,65.023c-5.386,0-9.767-4.38-9.767-9.765
		c0-5.384,4.381-9.765,9.767-9.765c5.385,0,9.765,4.381,9.765,9.765C102.137,60.644,97.757,65.023,92.372,65.023z"/>
	<path fill="#86DFF5" d="M92.378,52.18c-1.696,0-3.08,1.382-3.08,3.079c0,1.698,1.384,3.079,3.08,3.079
		c1.699,0,3.08-1.381,3.08-3.079C95.458,53.562,94.077,52.18,92.378,52.18z"/>
</g>
<path fill="#CC7373" d="M49.093,50.074c-3.015,0-5.467,2.453-5.467,5.468s2.452,5.466,5.467,5.466c3.015,0,5.467-2.451,5.467-5.466
	S52.108,50.074,49.093,50.074z M49.093,57.514c-1.087,0-1.972-0.885-1.972-1.972c0-1.089,0.885-1.973,1.972-1.973
	c1.088,0,1.973,0.884,1.973,1.973C51.066,56.629,50.181,57.514,49.093,57.514z"/>
<polygon fill="#73A6CC" points="99.54,17.367 73.478,28.831 75.138,32.607 99.04,22.095 104.736,26.207 107.152,22.862 "/>
<path fill="#FF826B" d="M16.267,74.824c0-5.58,4.727-10.521,10.323-10.791l0.873-0.043l-0.188-3.861l-0.872,0.041
	C18.682,60.543,12.4,67.115,12.4,74.824c0,7.707,6.283,14.281,14.004,14.65l0.873,0.043l0.184-3.863l-0.873-0.041
	C20.993,85.344,16.267,80.402,16.267,74.824z"/>
<polygon fill="#CC7373" points="98.104,121.438 86.479,130.909 63.951,130.909 63.951,135.844 88.234,135.844 101.221,125.266 "/>
<rect x="39.808" y="25.945" fill="#296B99" width="18.572" height="4.235"/>
<polygon fill="#296B99" points="72.374,66.716 68.097,65.823 60.372,102.906 70.931,102.906 70.931,98.538 65.744,98.538 "/>
<path fill="#FF826B" d="M133.916,71.939c2.07-3.17,4.419-6.764,2.041-12.461c-1.48-3.549-4.4-5.585-8.012-5.585
	c-1.143,0-2.323,0.212-3.512,0.626c-4.311,1.512-4.758,4.166-5.19,6.737c-0.142,0.845-0.287,1.718-0.574,2.684l-0.251,0.837
	l3.292,0.984l0.25-0.836c0.349-1.16,0.521-2.191,0.672-3.101c0.396-2.345,0.543-3.222,2.938-4.062
	c0.847-0.297,1.66-0.447,2.423-0.447c2.184,0,3.842,1.205,4.793,3.487c1.677,4.017,0.166,6.33-1.748,9.261
	c-1.158,1.773-2.354,3.607-3.033,5.988c-0.731,2.571-0.103,5.287,0.511,7.917c0.536,2.315,1.045,4.503,0.443,6.005
	c-0.409,1.026-2.952,2.354-5.09,2.354c-0.094,0-0.186-0.003-0.271-0.008c-1.398-0.09-1.561-0.703-1.621-0.936l-0.222-0.846
	l-3.323,0.867l0.221,0.847c0.531,2.036,2.301,3.345,4.729,3.495c0.166,0.011,0.334,0.016,0.505,0.016
	c3.107,0,7.151-1.727,8.265-4.514c1.002-2.505,0.347-5.329-0.289-8.064c-0.512-2.201-1.041-4.475-0.551-6.19
	C131.846,75.114,132.896,73.502,133.916,71.939z"/>
</svg>
