<?xml version="1.0" encoding="utf-8"?>
<!-- Generator: Adobe Illustrator 16.0.4, SVG Export Plug-In . SVG Version: 6.00 Build 0)  -->
<!DOCTYPE svg PUBLIC "-//W3C//DTD SVG 1.1//EN" "http://www.w3.org/Graphics/SVG/1.1/DTD/svg11.dtd">
<svg version="1.1" id="Layer_1" xmlns="http://www.w3.org/2000/svg" xmlns:xlink="http://www.w3.org/1999/xlink" x="0px" y="0px"
	 width="150px" height="150px" viewBox="0 0 150 150" enable-background="new 0 0 150 150" xml:space="preserve">
<circle fill="#FFFFFF" cx="75" cy="75" r="75"/>
<path fill="#FF826B" d="M51.862,43.296c-5.701,0-10.34,4.639-10.34,10.34c0,5.701,4.639,10.34,10.34,10.34
	c5.701,0,10.339-4.639,10.339-10.34C62.201,47.935,57.563,43.296,51.862,43.296z M51.862,60.839c-3.971,0-7.203-3.231-7.203-7.203
	c0-3.972,3.231-7.202,7.203-7.202c3.972,0,7.202,3.23,7.202,7.202C59.064,57.608,55.833,60.839,51.862,60.839z"/>
<path fill="#FF826B" d="M51.867,50.827c-1.549,0-2.809,1.26-2.809,2.809c0,1.549,1.26,2.811,2.809,2.811
	c1.549,0,2.81-1.262,2.81-2.811C54.677,52.087,53.416,50.827,51.867,50.827z"/>
<path fill="#73A6CC" d="M96.928,48.415c2.846,0,5.162,2.317,5.162,5.164c0,2.848-2.316,5.164-5.162,5.164
	c-2.848,0-5.164-2.316-5.164-5.164C91.764,50.732,94.08,48.415,96.928,48.415 M96.928,42.603c-6.062,0-10.979,4.913-10.979,10.977
	c0,6.062,4.916,10.979,10.979,10.979c6.063,0,10.977-4.916,10.977-10.979C107.904,47.516,102.99,42.603,96.928,42.603L96.928,42.603
	z"/>
<path fill="#73A6CC" d="M86.305,136.293c-0.326-6.761-6.297-12.475-13.042-12.475c-6.744,0-12.715,5.714-13.04,12.475l-3.629-0.175
	c0.42-8.785,7.898-15.933,16.669-15.933s16.249,7.146,16.67,15.933L86.305,136.293z"/>
<path fill="#CC7373" d="M73.263,96.134c-5.62,0-10.776-4.682-14.146-12.842l3.358-1.388c2.781,6.732,6.712,10.595,10.788,10.595
	c4.075,0,8.006-3.86,10.788-10.595l3.359,1.388C84.041,91.452,78.883,96.134,73.263,96.134z"/>
<rect x="41.696" y="25.515" fill="#86DFF5" width="20.35" height="3.635"/>
<path fill="#296B99" d="M26.16,91.684c-7.414,0-13.446-6.031-13.446-13.444c0-7.415,6.032-13.445,13.446-13.445
	c1.888,0,3.727,0.392,5.463,1.166l-1.479,3.318c-1.269-0.563-2.61-0.851-3.984-0.851c-5.41,0-9.812,4.4-9.812,9.812
	c0,5.409,4.401,9.811,9.812,9.811c1.375,0,2.716-0.286,3.984-0.852l1.479,3.319C29.887,91.292,28.048,91.684,26.16,91.684z"/>
<path fill="#86DFF5" d="M123.934,88.777c-0.146,0-0.289-0.006-0.432-0.014c-2.195-0.138-3.799-1.334-4.285-3.197l3.518-0.916
	c0.029,0.117,0.111,0.433,0.996,0.486c1.705,0.108,3.789-0.986,4.078-1.707c0.453-1.137,0.045-2.898-0.391-4.766
	c-0.494-2.129-1.055-4.541-0.418-6.777c0.58-2.038,1.641-3.659,2.574-5.091c1.646-2.522,2.734-4.188,1.418-7.339
	c-0.996-2.389-2.955-3.21-5.516-2.313c-1.777,0.623-1.865,1.144-2.189,3.077c-0.129,0.768-0.275,1.637-0.57,2.626l-3.482-1.042
	c0.23-0.771,0.353-1.49,0.47-2.186c0.358-2.144,0.769-4.572,4.571-5.904c4.379-1.533,8.33,0.172,10.072,4.342
	c2.055,4.928,0.043,8.008-1.731,10.726c-0.869,1.333-1.691,2.592-2.121,4.099c-0.379,1.334,0.051,3.179,0.465,4.961
	c0.541,2.331,1.103,4.74,0.224,6.937C130.207,87.218,126.691,88.777,123.934,88.777z"/>
<path fill="#296B99" d="M83.209,34.767l-1.869-3.115c1.619-0.972,3.045-2.234,4.557-3.57c1.97-1.742,4.004-3.544,6.613-4.803
	c3.699-1.788,7.748-3.427,12.32-3.263c2.373,0.081,5.799,0.499,8.123,3.183l-2.748,2.379c-1.09-1.258-2.734-1.836-5.498-1.93
	c-3.562-0.136-6.826,1.071-10.617,2.902c-2.156,1.042-3.92,2.602-5.785,4.254C86.736,32.19,85.115,33.624,83.209,34.767z"/>
</svg>
