<?xml version="1.0" encoding="utf-8"?>
<!-- Generator: Adobe Illustrator 16.0.4, SVG Export Plug-In . SVG Version: 6.00 Build 0)  -->
<!DOCTYPE svg PUBLIC "-//W3C//DTD SVG 1.1//EN" "http://www.w3.org/Graphics/SVG/1.1/DTD/svg11.dtd">
<svg version="1.1" id="Layer_1" xmlns="http://www.w3.org/2000/svg" xmlns:xlink="http://www.w3.org/1999/xlink" x="0px" y="0px"
	 width="150px" height="150px" viewBox="0 0 150 150" enable-background="new 0 0 150 150" xml:space="preserve">
<circle fill="#FFFFFF" cx="75" cy="75" r="75"/>
<rect x="38.887" y="53.026" transform="matrix(-0.7071 -0.7071 0.7071 -0.7071 51.186 131.3508)" fill="#296B99" width="27.82" height="4.098"/>
<rect x="87.525" y="49.211" fill="#73A6CC" width="13.113" height="4.099"/>
<path fill="#CC7373" d="M26.627,88.416c-8.361,0-15.164-6.803-15.164-15.164c0-8.361,6.802-15.163,15.164-15.163
	c2.129,0,4.203,0.442,6.162,1.315l-1.668,3.743c-1.431-0.637-2.943-0.96-4.494-0.96c-6.102,0-11.065,4.963-11.065,11.064
	c0,6.101,4.964,11.065,11.065,11.065c1.551,0,3.062-0.323,4.494-0.961l1.668,3.742C30.83,87.973,28.756,88.416,26.627,88.416z"/>
<path fill="#86DFF5" d="M120.646,91.988c-0.994,0-2.033-0.045-3.121-0.137l0.336-4.084c8.727,0.717,13.262-1.679,17.328-9.166
	c3.004-5.532,3.498-13.416-1.367-17.778c-3.547-3.184-9.024-2.887-12.207,0.661c-2.396,2.67-2.172,6.791,0.498,9.187
	c1.969,1.767,5.005,1.601,6.771-0.366l3.05,2.735c-3.273,3.651-8.906,3.955-12.558,0.683c-4.353-3.905-4.717-10.622-0.812-14.975
	c4.69-5.229,12.766-5.667,17.994-0.977c6.446,5.783,6.002,15.84,2.231,22.786C134.42,88.607,129.182,91.988,120.646,91.988z"/>
<path fill="#FF826B" d="M57.178,26.091c-0.195-4.043-3.764-7.459-7.794-7.459c-4.031,0-7.6,3.416-7.794,7.459l-4.094-0.197
	c0.301-6.264,5.633-11.359,11.888-11.359c6.254,0,11.587,5.096,11.888,11.359L57.178,26.091z"/>
<rect x="80.374" y="19.181" transform="matrix(-0.9323 -0.3616 0.3616 -0.9323 170.7262 74.4093)" fill="#86DFF5" width="23.903" height="4.099"/>
<polygon fill="#FF826B" points="85.068,94.936 71.654,94.936 71.654,73.252 75.752,73.252 75.752,90.836 85.068,90.836 "/>
<path fill="#296B99" d="M73.972,135.291c-8.851,0-17.147-3.934-22.762-10.792l3.171-2.597c4.833,5.904,11.973,9.289,19.59,9.289
	c7.618,0,14.757-3.385,19.591-9.289l3.17,2.597C91.119,131.357,82.823,135.291,73.972,135.291z"/>
</svg>
