<?xml version="1.0" encoding="utf-8"?>
<!-- Generator: Adobe Illustrator 16.0.4, SVG Export Plug-In . SVG Version: 6.00 Build 0)  -->
<!DOCTYPE svg PUBLIC "-//W3C//DTD SVG 1.1//EN" "http://www.w3.org/Graphics/SVG/1.1/DTD/svg11.dtd">
<svg version="1.1" id="Layer_1" xmlns="http://www.w3.org/2000/svg" xmlns:xlink="http://www.w3.org/1999/xlink" x="0px" y="0px"
	 width="150px" height="150px" viewBox="0 0 150 150" enable-background="new 0 0 150 150" xml:space="preserve">
<circle fill="#FFFFFF" cx="75" cy="75" r="75"/>
<path fill="#296B99" d="M23.682,89.964c-7.154-0.342-12.973-6.431-12.973-13.573c0-7.142,5.819-13.23,12.972-13.575l0.192,3.974
	c-4.979,0.239-9.185,4.636-9.185,9.603c0,4.965,4.206,9.36,9.184,9.599L23.682,89.964z"/>
<rect x="54.919" y="131.814" fill="#CC7373" width="35.812" height="4.774"/>
<path fill="#FF826B" d="M124.484,89.047c-2.069,0-4.082-0.429-5.982-1.277l1.621-3.634c1.387,0.618,2.854,0.933,4.361,0.933
	c5.924,0,10.744-4.818,10.744-10.742c0-5.924-4.82-10.744-10.744-10.744c-1.504,0-2.973,0.315-4.363,0.934l-1.618-3.635
	c1.903-0.848,3.917-1.277,5.981-1.277c8.117,0,14.723,6.604,14.723,14.723C139.207,82.441,132.604,89.047,124.484,89.047z"/>
<path fill="#73A6CC" d="M72.25,104.161c-3.381,0-6.289-1.569-8.281-4.504c-2.096-3.087-0.839-7.476,0.269-11.349
	c0.427-1.494,0.831-2.904,0.934-3.91c0.344-3.381,0.257-6.976,0.172-10.45c-0.038-1.559-0.077-3.17-0.077-4.746h3.979
	c0,1.527,0.039,3.115,0.076,4.649C69.409,77.45,69.5,81.17,69.131,84.8c-0.139,1.359-0.589,2.937-1.066,4.603
	c-0.826,2.885-1.854,6.474-0.803,8.02c1.425,2.1,3.323,2.988,5.804,2.715c4.366-0.479,9.081-4.51,10.379-7.794l3.699,1.468
	c-1.756,4.435-7.658,9.623-13.645,10.282C73.077,104.139,72.659,104.161,72.25,104.161z"/>
<path fill="#296B99" d="M92.107,49.071c-3.185,0-5.774,2.591-5.774,5.776s2.591,5.774,5.774,5.774c3.186,0,5.775-2.59,5.775-5.774
	C97.884,51.662,95.293,49.071,92.107,49.071z M92.107,53.847c0.553,0,1.002,0.449,1.002,1.001c0,0.552-0.449,1.001-1.002,1.001
	c-0.551,0-1-0.449-1-1.001C91.107,54.296,91.557,53.847,92.107,53.847z"/>
<path fill="#FF826B" d="M46.284,51.192c2.366,0,4.291,1.924,4.291,4.29c0,2.364-1.925,4.289-4.291,4.289
	c-2.365,0-4.29-1.925-4.29-4.289C41.995,53.116,43.919,51.192,46.284,51.192 M46.284,46.36c-5.037,0-9.12,4.085-9.12,9.122
	c0,5.036,4.083,9.12,9.12,9.12c5.038,0,9.121-4.084,9.121-9.12C55.405,50.445,51.322,46.36,46.284,46.36L46.284,46.36z"/>
<polygon fill="#86DFF5" points="106.359,32.386 102.417,31.845 103.662,22.771 76.389,29.93 75.377,26.081 108.413,17.411 "/>
<rect x="44.293" y="14.527" transform="matrix(-0.3616 -0.9323 0.9323 -0.3616 38.6579 78.7301)" fill="#CC7373" width="3.979" height="23.207"/>
</svg>
